PathFileType	4	(X/Y/Z)	D:\TRACE\v60_Jaco2_6-2-23\BothDRS_Motion3_6-platform.trc
DataRate	CameraRate	NumFrames	NumMarkers	Units	OrigDataRate	OrigDataStartFrame	OrigNumFrames
100.00	100.00	      61	5	mm	100.00	1751	      7000
Frame#	Time	Left_Front			Right_Front			Left_Aft			Right_Aft			Post			
		X1	Y1	Z1	X2	Y2	Z2	X3	Y3	Z3	X4	Y4	Z4	X5	Y5	Z5	

1751	17.500	-804.82062	7.08643	-651.93884	765.67377	5.16367	-629.09119	-735.58368	13.77802	484.75400	678.54425	11.09762	587.84003	-9.44524	1303.24731	-969.89331	
1752	17.510	-804.51697	7.21717	-651.54144	765.63586	5.32737	-629.04736	-735.63837	13.62068	484.82071	678.46008	11.26168	587.84442	-9.50999	1303.37952	-970.03064	
1753	17.520	-804.64038	7.39348	-651.57660	765.67554	5.61123	-629.04041	-735.63690	13.53697	484.83716	678.39722	11.16479	588.01721	-9.37329	1303.60144	-970.21967	
1754	17.530	-804.61151	7.45930	-651.52820	765.58716	5.83856	-629.06104	-735.59338	13.48709	484.77679	678.40216	11.08437	588.08484	-9.43222	1303.78540	-970.40564	
1755	17.540	-804.57288	7.50821	-651.42773	765.63623	5.97775	-629.03528	-735.59253	13.44715	484.76041	678.29266	11.06520	588.17078	-9.42100	1303.94531	-970.39917	
1756	17.550	-804.54535	7.52946	-651.40741	765.75635	5.97301	-628.74768	-735.66211	13.39033	484.77020	678.68866	11.19065	588.24835	-9.40834	1304.08606	-970.22961	
1757	17.560	-804.57794	7.52569	-651.36902	765.76721	6.06305	-628.73248	-735.71295	13.25463	484.77234	678.55853	11.20704	588.53674	-9.56241	1304.22131	-969.92566	
1758	17.570	-804.60590	7.56903	-651.33282	765.54358	6.13363	-628.92987	-735.67407	13.18050	484.76627	678.63086	10.07837	587.31201	-9.67470	1304.31433	-969.68280	
1759	17.580	-804.54395	7.60389	-651.27667	765.55841	6.13346	-628.90753	-735.72345	13.11423	484.74341	678.82977	10.26073	587.80890	-9.94826	1304.47485	-969.29132	
1760	17.590	-804.87897	8.01423	-651.87183	765.60046	6.27333	-628.85748	-735.75537	13.13437	484.80063	678.73828	10.13134	587.82208	-9.80202	1304.85657	-968.52386	
1761	17.600	-804.95599	8.18348	-651.76947	765.53192	6.50421	-628.70917	-735.77985	13.11818	484.82489	678.64728	10.02463	587.84753	-9.81085	1305.06714	-968.03290	
1762	17.610	-805.02209	8.39479	-651.66876	765.41766	6.73510	-628.61859	-735.85413	12.95518	484.85864	678.56976	9.86897	587.89606	-9.71849	1305.17639	-967.51123	
1763	17.620	-805.10248	8.54081	-651.60504	765.44159	6.77366	-628.56793	-735.85535	12.77194	484.85571	677.89575	9.16414	588.02777	-9.70518	1305.35498	-967.04004	
1764	17.630	-805.18121	8.74890	-651.58490	765.43768	6.84171	-628.53467	-735.85284	12.68339	484.84937	678.11597	9.29062	588.03448	-9.67732	1305.59155	-966.71948	
1765	17.640	-805.16919	8.93309	-651.50879	765.38361	6.99653	-628.55182	-735.84503	12.65292	484.90256	678.44244	9.20146	587.97131	-9.71322	1305.82434	-966.46832	
1766	17.650	-805.08905	9.02190	-651.42621	765.37134	7.40596	-628.57220	-735.75732	12.54317	484.95270	678.48059	9.18512	587.95142	-9.75966	1306.09070	-966.20276	
1767	17.660	-805.19318	9.05573	-651.54736	765.36493	7.50998	-628.55084	-735.64691	12.31650	485.14319	678.47021	9.07222	588.01953	-9.76206	1306.36816	-966.07745	
1768	17.670	-805.13611	9.41452	-651.45923	765.37280	7.53162	-628.52808	-735.83356	12.44250	484.89624	678.36481	8.93068	587.95190	-9.83531	1306.57983	-965.81232	
1769	17.680	-805.24408	9.31170	-651.59253	765.40094	7.65712	-628.45813	-735.88831	12.34118	484.92496	678.29382	8.79406	587.95160	-9.95697	1306.66028	-965.60071	
1770	17.690	-805.18042	9.37443	-651.62268	765.38586	7.78528	-628.39685	-735.87604	12.33210	484.95221	678.29095	8.72229	588.05420	-9.91000	1306.79321	-965.39801	
1771	17.700	-805.05280	9.47382	-651.56647	765.40045	7.88079	-628.38568	-735.85864	12.24062	485.01257	678.30402	8.79719	588.20618	-9.76598	1306.96155	-965.03699	
1772	17.710	-805.08026	9.55375	-651.45026	765.36597	7.94540	-628.38831	-735.82220	12.11844	484.98801	678.33221	8.70458	588.23804	-9.87728	1307.04016	-964.95007	
1773	17.720	-805.20691	9.64153	-651.36896	765.33807	8.01809	-628.43036	-735.85468	11.94318	485.04276	678.27509	8.56324	588.21997	-9.82945	1307.14575	-964.75452	
1774	17.730	-805.27362	9.65969	-651.42902	765.26819	8.10777	-628.37183	-735.94672	11.86042	485.15863	678.16656	8.46581	588.24292	-10.02080	1307.35364	-964.68488	
1775	17.740	-805.21527	9.91959	-651.31561	765.39099	8.26951	-628.12396	-736.02631	11.70218	485.25800	678.15533	8.42555	588.26025	-9.92022	1307.48450	-964.56329	
1776	17.750	-805.24255	10.10555	-651.23602	765.22217	8.35886	-628.30920	-736.02496	11.59630	485.34448	678.16345	8.37227	588.36652	-10.00700	1307.80432	-964.36011	
1777	17.760	-805.36987	10.27519	-651.16193	765.23120	8.51071	-628.28082	-736.01025	11.55851	485.40781	678.12140	8.24861	588.42426	-9.89667	1308.12573	-964.02777	
1778	17.770	-805.30219	10.55210	-651.03333	765.18085	8.63229	-628.24469	-736.05212	11.47384	485.38089	678.07495	8.13930	588.41608	-9.90973	1308.37048	-963.69727	
1779	17.780	-805.36865	10.75568	-650.98810	765.10211	8.78601	-628.12494	-736.05450	11.39697	485.40085	678.07733	8.08412	588.41736	-9.88854	1308.61768	-963.24902	
1780	17.790	-805.36688	10.95029	-651.03601	765.07678	8.90528	-628.06903	-736.15283	11.32161	485.47757	678.08698	8.03621	588.45184	-9.98452	1308.75879	-962.89014	
1781	17.800	-805.44873	10.93870	-650.95410	764.99255	9.01831	-628.05560	-736.12079	11.09547	485.50821	678.09729	7.97971	588.47333	-10.01037	1308.80786	-962.50922	
1782	17.810	-805.45886	10.95738	-650.96063	764.92322	9.11211	-628.07465	-736.18384	11.03790	485.53580	678.08911	7.93745	588.48682	-10.19556	1308.86292	-962.06165	
1783	17.820	-805.61475	11.05523	-650.89978	764.89697	9.11716	-628.05872	-736.20667	11.02890	485.56815	677.94720	7.86235	588.50464	-10.35612	1308.94653	-961.82056	
1784	17.830	-805.82318	11.16837	-650.77875	764.80817	9.17117	-628.09863	-736.26355	11.01730	485.57919	677.87860	7.81816	588.57837	-10.28364	1308.97595	-961.48926	
1785	17.840	-805.81268	11.23948	-650.71545	764.77142	9.19778	-628.11511	-736.31171	10.96582	485.60986	677.87415	7.71958	588.71692	-10.26873	1309.02356	-961.32904	
1786	17.850	-805.83490	11.25791	-650.63959	764.74872	9.24599	-628.11359	-736.37067	10.95518	485.65186	677.72034	7.63968	588.71283	-10.31080	1309.04260	-961.32629	
1787	17.860	-805.82764	11.27618	-650.73230	764.67291	9.30501	-628.14178	-736.46832	10.94793	485.64899	677.67914	7.53442	588.78510	-10.49053	1309.04126	-961.46869	
1788	17.870	-806.05377	11.40301	-650.71759	764.65710	9.31205	-628.14374	-736.52313	10.92712	485.64209	677.82190	7.63500	588.82806	-10.68418	1309.09375	-961.69159	
1789	17.880	-806.09601	11.30734	-650.56415	764.63074	9.37365	-628.14197	-736.58154	10.93005	485.70984	677.76727	7.64297	588.84198	-10.72166	1309.15601	-961.90424	
1790	17.890	-806.15723	11.35506	-650.53992	764.54236	9.35200	-628.15045	-736.67517	10.93324	485.68622	677.65021	7.66439	588.81903	-10.72279	1309.18848	-962.05328	
1791	17.900	-806.26086	11.43950	-650.60498	764.46027	9.41203	-628.14490	-736.75653	10.94776	485.63791	677.59247	7.67166	588.81152	-10.69229	1309.20850	-962.10370	
1792	17.910	-806.38727	11.46492	-650.76770	764.32837	9.44894	-628.14807	-736.87628	10.93920	485.72977	677.48816	7.69417	588.74359	-10.77127	1309.24072	-962.11426	
1793	17.920	-806.51508	11.41318	-650.81812	764.30139	9.41144	-628.14917	-736.99139	10.90825	485.65833	677.34064	7.69418	588.64178	-10.92784	1309.23083	-962.08490	
1794	17.930	-806.53156	11.20447	-650.65796	764.24371	9.41899	-628.16217	-737.07263	10.97710	485.56400	677.20709	7.74731	588.59210	-10.97030	1309.16895	-962.00446	
1795	17.940	-806.61652	11.28724	-650.70837	764.15802	9.42431	-628.17188	-737.21063	11.06786	485.55515	677.14227	7.85387	588.58368	-11.15796	1309.14856	-961.91235	
1796	17.950	-806.70288	11.18462	-650.73126	764.08893	9.37910	-628.13696	-737.34119	11.12393	485.58124	677.07404	7.85668	588.58240	-11.35921	1309.08484	-961.73608	
1797	17.960	-806.70483	10.95748	-650.64844	764.02155	9.24215	-628.11316	-737.50928	11.21380	485.65671	676.88983	7.81855	588.57306	-11.41422	1309.08350	-961.58612	
1798	17.970	-806.85675	10.91455	-650.76068	763.90259	9.02165	-628.11249	-737.63025	11.20094	485.61884	676.75165	7.89800	588.54602	-11.58062	1309.08765	-961.53296	
1799	17.980	-807.03473	10.88692	-650.96252	763.74390	8.87246	-628.16498	-737.77795	11.32321	485.48340	676.51996	7.87418	588.48279	-11.74808	1309.04956	-961.53510	
1800	17.990	-807.09540	10.90588	-651.02570	763.66431	9.03309	-628.21130	-737.83551	11.33529	485.54077	676.42926	7.94476	588.43768	-11.69949	1308.95813	-961.58765	
1801	18.000	-807.16302	10.91765	-651.06146	763.55884	8.88905	-628.17419	-737.99371	11.44226	485.44263	676.40906	8.04927	588.42407	-11.80903	1308.84705	-961.67731	
1802	18.010	-807.21906	10.91182	-651.13007	763.46362	8.78294	-628.16553	-738.05298	11.59211	485.43655	676.39050	8.16723	588.41412	-12.05363	1308.67249	-961.94751	
1803	18.020	-807.34045	10.87147	-651.21558	763.35480	8.59405	-628.22791	-738.16705	11.60876	485.39267	676.26575	8.21224	588.34155	-12.18824	1308.34460	-962.35016	
1804	18.030	-807.50488	10.79647	-651.27972	763.20740	8.46794	-628.24554	-738.32050	11.60404	485.33325	676.15869	8.31143	588.31067	-12.22755	1308.02734	-962.87933	
1805	18.040	-807.59003	10.67311	-651.30341	763.07111	8.20828	-628.23389	-738.15253	11.35378	485.42111	676.07990	8.45286	588.29529	-12.35689	1307.71204	-963.41168	
1806	18.050	-807.69556	10.43809	-651.35236	762.99445	7.92210	-628.29254	-738.31891	11.62697	485.29898	676.04755	8.56129	588.27472	-12.43777	1307.52893	-963.86713	
1807	18.060	-807.84753	10.28385	-651.52869	762.81384	7.77408	-628.37878	-738.42517	11.86058	485.18683	675.23834	8.90394	588.54791	-12.39550	1307.37231	-964.39941	
1808	18.070	-807.90845	10.17635	-651.68646	762.70929	7.62195	-628.43121	-738.68018	11.99446	485.15112	675.27057	9.12582	588.54504	-12.55100	1307.16101	-965.03467	
1809	18.080	-808.23071	9.60521	-651.68195	762.52454	7.43213	-628.48041	-738.83667	12.10420	485.03485	674.78662	9.49906	588.78992	-13.02112	1306.52881	-965.92029	
1810	18.090	-808.39368	9.27820	-651.66797	762.35913	7.22740	-628.56482	-739.03436	12.22212	485.08514	674.93152	9.61015	588.28967	-13.00336	1306.20215	-966.39020	
1811	18.100	-808.58398	9.02878	-651.42834	762.17603	7.04800	-628.61932	-738.87042	12.46012	485.18713	674.92114	9.69340	588.27899	-13.07444	1305.88782	-966.87427	
